<!DOCTYPE svg PUBLIC "-//W3C//DTD SVG 1.1//EN" "http://www.w3.org/Graphics/SVG/1.1/DTD/svg11.dtd">
<!-- Uploaded to: SVG Repo, www.svgrepo.com, Transformed by: SVG Repo Mixer Tools -->
<svg fill="#000000" width="800px" height="800px" viewBox="0 0 24 24" id="add-file-6" data-name="Flat Line" xmlns="http://www.w3.org/2000/svg" class="icon flat-line">
<g id="SVGRepo_bgCarrier" stroke-width="0"/>
<g id="SVGRepo_tracerCarrier" stroke-linecap="round" stroke-linejoin="round"/>
<g id="SVGRepo_iconCarrier">
<path id="secondary" d="M11.5,19A6.5,6.5,0,0,1,18,12.5V7L14,3H5A1,1,0,0,0,4,4V20a1,1,0,0,0,1,1h6.82A6.3,6.3,0,0,1,11.5,19Z" style="fill: #45AAB8; stroke-width:0.36;"/>
<path id="primary" d="M16,19h4m-2-2v4M8,13h2m4-4H8" style="fill: none; stroke: #231F20; stroke-linecap: round; stroke-linejoin: round; stroke-width:0.36;"/>
<path id="primary-2" data-name="primary" d="M12,21H5a1,1,0,0,1-1-1V4A1,1,0,0,1,5,3h9l4,4v6" style="fill: none; stroke: #231F20; stroke-linecap: round; stroke-linejoin: round; stroke-width:0.36;"/>
</g>
</svg>