<?xml version="1.0" encoding="utf-8"?>
<svg version="1.1" xmlns="http://www.w3.org/2000/svg" xmlns:xlink="http://www.w3.org/1999/xlink" x="0px" y="0px"
	viewBox="0 0 500 500" style="enable-background:new 0 0 500 500;" xml:space="preserve">
	<g id="BACKGROUND">
		<rect y="0.054" style="fill:transparent;" width="499.946" height="499.946" />
	</g>
	<g id="OBJECT">
		<g>
			<path
				style="fill:#1ED668;stroke:#0F9645;stroke-width:2;stroke-linecap:round;stroke-linejoin:round;stroke-miterlimit:10;"
				d="
			M218.456,347.059c0,0-17.885-6.306-22.171-23.254c-4.286-16.948-14.571,1.461-18.857-13.1
			c-4.286-14.562-15.404-11.454-22.273-25.008c0,0,4.937,10.749,6.866,19.749c1.929,9,4.5,9.643,11.893,14.464
			c7.393,4.821,3.862,9.964,14.627,16.714C199.307,343.374,218.456,347.059,218.456,347.059z" />
			<path
				style="fill:#1ED668;stroke:#0F9645;stroke-width:2;stroke-linecap:round;stroke-linejoin:round;stroke-miterlimit:10;"
				d="
			M341.645,208.372c0,0,1.534-18.209-9.395-27.362c-10.929-9.153-10.917-1.439-22.494-16.224
			c-11.577-14.786-34.697-11.344-34.697-11.344s3.512,0.094,12.512,12.308s14.303,3.857,19.526,13.179
			c5.224,9.321,4.947,12.857,17.621,18C337.393,202.071,341.645,208.372,341.645,208.372z" />
			<g>
				<text transform="matrix(1 0 0 1 159.0722 251.1976)"
					style="fill:#295139; font-family:'Sofia-Regular'; font-size:53.1336px;">Healthy</text>
				<text transform="matrix(1 0 0 1 205.6244 296.4534)"
					style="fill:#295139; font-family:'Sofia-Regular'; font-size:53.1336px;">food</text>
			</g>
			<g>
				<g>
					<path style="fill:#0F9645;" d="M248.371,135.493c-6.228-13.114-26.475-8.377-35.666-0.133
					c-8.772,8.154-8.853,16.389,4.435,18.295C229.325,155.412,249.033,150.781,248.371,135.493L248.371,135.493z M251.636,134.85
					c0.581,17.434-20.831,22.95-34.803,20.8c-9.137-1.391-15.55-6.506-10.299-15.985C214.421,125.772,243.561,116.97,251.636,134.85
					L251.636,134.85z" />
				</g>
			</g>

			<path
				style="fill:none;stroke:#0F9645;stroke-width:3.3277;stroke-linecap:round;stroke-linejoin:round;stroke-miterlimit:10;"
				d="
			M142.188,211.632c-4.132,11.81-6.379,24.506-6.379,37.726c0,63.064,51.124,114.188,114.188,114.188" />
			<g>
				<path style="fill:#1ED668;" d="M141.715,213.021c0,0-5.676-42.136,33.566-50.016
				C175.281,163.005,175.281,202.009,141.715,213.021z" />
				<path style="fill:#0F9645;" d="M140.831,214.43c-0.559-0.379-0.816-1.086-0.821-1.76c-0.02-0.325-0.092-1.282-0.101-1.626
				c-0.9-23.788,10.591-44.265,35.276-48.518c0.298-0.069,0.597,0.17,0.584,0.479c-0.062,5.438-0.898,10.79-2.272,16.034
				c-3.652,14.56-13.308,28.058-27.411,34.023C144.512,213.866,142.52,214.284,140.831,214.43L140.831,214.43z M142.599,211.611
				c0.608-0.576,0.861-0.997,1.581-1.197c0.128-0.064,0.534-0.217,0.67-0.282c18.92-7.2,28.937-27.78,29.943-47.127
				c0-0.001,0.584,0.479,0.584,0.478c-23.968,5.015-34.166,25.232-32.13,48.359c0.027,0.165,0.07,0.675,0.101,0.853
				C143.336,212.309,142.967,211.779,142.599,211.611L142.599,211.611z" />
			</g>
			<g>
				<path style="fill:#1ED668;"
					d="M146.068,296.379c0,0-42.39-3.267-41.884-43.29C104.184,253.09,139.918,254.657,146.068,296.379z" />
				<path style="fill:#0F9645;" d="M147.285,297.514c-0.491,0.486-1.239,0.598-1.916,0.458c-0.321-0.052-1.274-0.177-1.611-0.242
				c-23.441-4.105-41.052-19.626-40.036-44.647c-0.003-0.262,0.22-0.477,0.483-0.456c5.542,0.366,10.895,1.89,15.928,4.186
				c11.481,5.136,20.285,15.402,24.423,27.216C146.039,288.33,147.629,292.917,147.285,297.514L147.285,297.514z M144.852,295.244
				c-1.339-1.954-1.237-4.261-1.908-6.451c-0.464-1.859-1.101-3.889-1.734-5.709c-3.819-10.654-11.517-19.85-21.74-24.897
				c-4.757-2.395-10.006-4.092-15.305-4.636c-0.004,0.001,0.482-0.456,0.481-0.456c-0.102,24.493,17.54,38.699,40.591,41.539
				c0.146,0.005,0.69,0.076,0.855,0.079C145.702,294.641,145.091,294.907,144.852,295.244L144.852,295.244z" />
			</g>
			<g>
				<path style="fill:#0F9645;" d="M144.894,297.558l-30.557-32.799l32.906,30.442C148.871,296.773,146.48,299.186,144.894,297.558
				L144.894,297.558z" />
			</g>
			<g>
				<path style="fill:#0F9645;" d="M140.666,210.958c3.244-6.52,6.728-12.842,10.574-19.011c3.865-6.096,7.94-12.215,13.281-17.128
				c0.113-0.103,0.294,0.07,0.176,0.186c-2.504,2.578-4.567,5.532-6.517,8.533c-3.871,6.035-7.125,12.452-10.163,18.941
				c-1.508,3.252-2.974,6.552-4.314,9.844C142.792,214.392,139.72,213.037,140.666,210.958L140.666,210.958z" />
			</g>
			<g>
				<path style="fill:#0F9645;" d="M275.269,352.189c-6.073,2.02-12.403,2.755-18.687,3.248c-1.408,0.114-2.935,0.099-4.247,0.562
				c-7.27,2.637-5.45,12.593,1.105,15.128c2.517,1.133,5.538,1.367,8.548,1.385c6.102-0.092,12.265-1.206,18.201-2.687
				c0.438-0.121,0.892,0.143,1.002,0.584c0.102,0.408-0.127,0.822-0.515,0.961c-5.97,2.124-12.165,3.583-18.613,3.939
				c-6.707,0.584-14.727-1.705-17.026-8.846c-1.973-5.125,0.801-11.9,6.37-13.372c1.626-0.516,3.372-0.528,5.03-0.548
				c3.095-0.08,6.189-0.238,9.261-0.55c3.083-0.266,6.15-0.687,9.156-1.327C275.807,350.461,276.203,351.88,275.269,352.189
				L275.269,352.189z" />
			</g>
			<g>
				<path style="fill:#0F9645;" d="M277.572,361.064c-8.948,2.483-18.231,3.873-27.575,4.145c-0.919,0.028-1.686-0.695-1.714-1.614
				c-0.032-0.954,0.76-1.746,1.714-1.714c9.081,0.273,18.226-0.538,27.172-2.459C278.209,359.199,278.611,360.775,277.572,361.064
				L277.572,361.064z" />
			</g>
			<g>
				<g>

					<path
						style="fill:none;stroke:#0F9645;stroke-width:3.3277;stroke-linecap:round;stroke-linejoin:round;stroke-miterlimit:10;"
						d="
					M357.812,287.085c4.133-11.81,6.379-24.506,6.379-37.726c0-63.064-51.124-114.188-114.188-114.188" />
					<g>
						<path style="fill:#1ED668;" d="M358.285,285.697c0,0,5.676,42.136-33.566,50.016
						C324.719,335.713,324.719,296.708,358.285,285.697z" />
						<path style="fill:#0F9645;" d="M359.169,284.287c0.559,0.379,0.816,1.086,0.821,1.76c0.02,0.326,0.092,1.282,0.101,1.626
						c0.9,23.788-10.591,44.265-35.276,48.518c-0.298,0.069-0.597-0.17-0.584-0.479c0.062-5.438,0.898-10.79,2.272-16.034
						c3.652-14.56,13.308-28.058,27.411-34.023C355.488,284.851,357.48,284.434,359.169,284.287L359.169,284.287z M357.401,287.106
						c-0.608,0.576-0.861,0.997-1.581,1.197c-0.128,0.064-0.534,0.217-0.67,0.282c-18.92,7.2-28.937,27.78-29.943,47.127
						c0.001,0.002-0.584-0.479-0.584-0.478c23.968-5.015,34.166-25.232,32.13-48.359c-0.027-0.165-0.07-0.675-0.101-0.853
						C356.664,286.408,357.033,286.938,357.401,287.106L357.401,287.106z" />
					</g>
					<g>
						<path style="fill:#1ED668;" d="M353.932,202.338c0,0,42.39,3.267,41.884,43.29C395.816,245.628,360.082,244.06,353.932,202.338
						z" />
						<path style="fill:#0F9645;" d="M352.715,201.203c0.491-0.486,1.239-0.598,1.916-0.458c0.321,0.052,1.274,0.177,1.611,0.242
						c23.441,4.105,41.052,19.626,40.036,44.647c0.003,0.262-0.22,0.477-0.483,0.456c-5.542-0.366-10.895-1.89-15.928-4.186
						c-11.481-5.136-20.285-15.402-24.423-27.216C353.961,210.387,352.371,205.801,352.715,201.203L352.715,201.203z
						 M355.148,203.473c1.339,1.954,1.237,4.261,1.908,6.451c0.464,1.859,1.101,3.889,1.733,5.709
						c3.819,10.654,11.517,19.85,21.74,24.896c4.757,2.395,10.006,4.092,15.305,4.636c0.004-0.001-0.482,0.456-0.482,0.456
						c0.102-24.493-17.54-38.699-40.591-41.539c-0.146-0.005-0.69-0.076-0.855-0.079
						C354.298,204.076,354.909,203.81,355.148,203.473L355.148,203.473z" />
					</g>
					<g>
						<path style="fill:#0F9645;" d="M355.106,201.159l30.557,32.799l-32.906-30.442C351.129,201.945,353.52,199.531,355.106,201.159
						L355.106,201.159z" />
					</g>
					<g>
						<path style="fill:#0F9645;" d="M359.334,287.759c-3.244,6.52-6.728,12.842-10.574,19.011
						c-3.865,6.096-7.94,12.215-13.281,17.128c-0.113,0.103-0.294-0.07-0.176-0.186c2.504-2.578,4.567-5.532,6.517-8.533
						c3.871-6.035,7.125-12.452,10.163-18.941c1.509-3.253,2.974-6.552,4.314-9.844C357.208,284.326,360.28,285.681,359.334,287.759
						L359.334,287.759z" />
					</g>
				</g>
			</g>
			<g>
				<path style="fill:#0F9645;" d="M346.512,274.349c9.732-37.826-5.318-80.211-36.777-103.429
				c-10.319-7.87-22.244-13.608-34.807-16.966c-0.283-0.074-0.454-0.363-0.38-0.646c0.073-0.281,0.362-0.449,0.642-0.381
				c12.744,3.209,24.917,8.844,35.518,16.689c32.56,23.321,48.464,66.581,39.04,105.507
				C349.212,277.225,346.029,276.537,346.512,274.349L346.512,274.349z" />
			</g>
			<g>
				<path style="fill:#0F9645;" d="M153.674,227.251c-5.369,20.719-3.661,43.21,4.493,62.969c0.63,1.391,2.237,4.945,2.845,6.289
				c0.709,1.294,2.59,4.722,3.32,6.056c1.577,2.569,3.285,5.254,5.043,7.708c11.725,16.253,28.367,28.797,47.201,35.713
				c0.216,0.077,0.329,0.315,0.252,0.531c-0.076,0.214-0.314,0.325-0.529,0.253c-13.191-4.655-25.588-11.934-35.845-21.513
				c-2.717-2.365-5.735-5.723-8.18-8.388c-0.972-1.159-3.397-4.269-4.387-5.504c-1.834-2.472-3.62-5.176-5.271-7.768
				c-0.782-1.37-2.739-4.804-3.492-6.124c-0.638-1.346-2.356-4.983-3.015-6.377c-1.211-2.887-2.333-5.829-3.35-8.79
				c-0.422-1.448-1.581-5.364-1.992-6.777c-0.539-2.668-1.494-6.537-1.849-9.236c-2.013-13.206-1.637-26.837,1.525-39.841
				C151.004,224.353,154.162,225.05,153.674,227.251L153.674,227.251z" />
			</g>
			<path style="fill:#295139;" d="M229.428,305.898h64.933l-0.254,1.087c-0.29,1.241-1.397,2.118-2.671,2.118h-62.008
			c-0.885,0-1.602-0.717-1.602-1.602l0,0C227.825,306.615,228.543,305.898,229.428,305.898z" />
			<path style="fill:#295139;" d="M210.126,209.526h33.128L243,210.613c-0.29,1.24-1.397,2.118-2.671,2.118h-30.203
			c-0.885,0-1.602-0.717-1.602-1.602l0,0C208.524,210.243,209.241,209.526,210.126,209.526z" />
			<g>

				<text transform="matrix(1 0 0 1 209.4794 201.3737)"
					style="fill:#295139; font-family:'Poppins-Bold'; font-size:16.6314px; letter-spacing:1;">EAT</text>
			</g>
		</g>
	</g>
</svg>